<svg xmlns="http://www.w3.org/2000/svg" version="1.1" viewBox="-5.0 -10.0 110.0 135.0">
 <path d="m36.941 18.25c-6.1641 0-11.199 5.0352-11.199 11.199 0 2.3633 0.74219 4.5586 2 6.3711l-8.2852 8.2812h0.003907c-0.78125 0.78125-0.78125 2.0469 0 2.8281s2.0469 0.78125 2.8281 0l8.2773-8.2812c1.8125 1.2617 4.0078 2.0078 6.3711 2.0078 6.1641 0 11.207-5.043 11.207-11.207 0-6.1641-5.043-11.199-11.207-11.199zm22.277 0c-4.043 0-7.3594 3.3203-7.3594 7.3594v20.531c0 0.53125 0.21094 1.0391 0.58594 1.4141s0.88281 0.58594 1.4141 0.58594h20.531c4.043 0 7.3594-3.3164 7.3594-7.3594v-15.172c0-4.043-3.3164-7.3594-7.3594-7.3594zm-22.277 3.9922c4.0039 0 7.207 3.2031 7.207 7.2031 0 4.0039-3.2031 7.2031-7.207 7.207-1.9375 0-3.6875-0.75391-4.9766-1.9844v0.003906c-0.039063-0.042969-0.078125-0.085937-0.11719-0.12891-0.019531-0.015625-0.039062-0.027344-0.054687-0.042969-1.2695-1.2969-2.0469-3.0742-2.0469-5.0508 0-4.0039 3.1953-7.2031 7.1953-7.2031zm22.277 0h15.172c1.8789 0 3.3672 1.4883 3.3672 3.3672v15.172c0 1.8789-1.4844 3.3633-3.3672 3.3672h-18.535v-18.535c0-1.8789 1.4883-3.3672 3.3672-3.3672zm-33.602 29.609c-4.043 0-7.3672 3.3164-7.3672 7.3594v15.168c0 4.043 3.3242 7.3672 7.3672 7.3672h15.172c4.043 0 7.3594-3.3242 7.3594-7.3672v-20.531l-0.003907 0.007813c0-1.1055-0.89453-2-2-2zm28.246 0-0.003906 0.003907c-1.1055 0-2 0.89453-2 2v20.531c0 4.043 3.3164 7.3672 7.3594 7.3672h15.172c4.043 0 7.3594-3.3242 7.3594-7.3672v-15.168c0-4.043-3.3164-7.3594-7.3594-7.3594zm-28.246 4h18.531v18.527c0 1.8789-1.4805 3.3633-3.3594 3.3672h-15.172c-1.8789 0-3.3633-1.4844-3.3633-3.3672v-15.168c0-1.8789 1.4844-3.3594 3.3633-3.3594zm30.238 0h18.535c1.8789 0 3.3672 1.4805 3.3672 3.3594v15.168c0 1.8789-1.4844 3.3633-3.3672 3.3672h-15.172c-1.8789 0-3.3672-1.4844-3.3672-3.3672z"/>
<text x="0.0" y="117.5" font-size="5.0" font-weight="bold" font-family="Arbeit Regular, Helvetica, Arial-Unicode, Arial, Sans-serif" fill="#000000">Created by iOktavDesign</text><text x="0.0" y="122.5" font-size="5.0" font-weight="bold" font-family="Arbeit Regular, Helvetica, Arial-Unicode, Arial, Sans-serif" fill="#000000">from Noun Project</text></svg>