<svg xmlns="http://www.w3.org/2000/svg" version="1.1" viewBox="-5.0 -10.0 110.0 135.0">
 <path d="m87.516 10.754h-39.883c-0.84766-3.7891-4.2031-6.4883-8.0859-6.5h-27.062c-4.457-0.003906-8.1094 3.543-8.2344 8v68.871c0.039062 4.5156 3.7227 8.1484 8.2344 8.1211h19.352c5.1328 4.207 11.562 6.5039 18.199 6.5039 6.6367 0 13.066-2.2969 18.199-6.5039h19.281c4.5117 0.027344 8.1953-3.6055 8.2344-8.1211v-62.367c-0.12109-4.457-3.7773-8.0078-8.2344-8.0039zm-75.031-3.5039h27.062c2.8125-0.023438 5.1328 2.1914 5.2344 5 0 0.82812 0.67188 1.5 1.5 1.5h41.234c2.8086-0.027344 5.1289 2.1914 5.2344 5v6.75h-85.5v-13.246c0.10156-2.8125 2.4219-5.0273 5.2344-5.0039zm11.84 59.824c-0.015625-6.832 2.6836-13.391 7.5078-18.23 4.8242-4.8359 11.375-7.5586 18.207-7.5625 6.832-0.007812 13.387 2.707 18.215 7.5352 4.832 4.832 7.543 11.387 7.5391 18.219-0.003907 6.832-2.7266 13.383-7.5664 18.203-4.8359 4.8242-11.395 7.5273-18.227 7.5117-6.8047-0.023438-13.32-2.7344-18.133-7.5469-4.8086-4.8086-7.5195-11.328-7.543-18.129zm63.191 19.172h-16.125c4.7656-5.25 7.4023-12.086 7.3984-19.172 0.019532-9.4688-4.6289-18.34-12.426-23.715-7.793-5.3711-17.738-6.5625-26.582-3.1758-8.8398 3.3828-15.449 10.906-17.664 20.113-2.2148 9.207 0.24609 18.914 6.582 25.949h-16.215c-2.8438-0.007813-5.1641-2.2773-5.2344-5.1211v-52.625h85.5v52.625c-0.070312 2.8438-2.3906 5.1133-5.2344 5.1211zm-16.617-19.172c0.03125-3.2969-2.6172-5.9961-5.9141-6.0312h-9.0703v-8.9531c0-3.2656-2.6484-5.9141-5.9141-5.9141s-5.9141 2.6484-5.9141 5.9141v8.9531h-9.0664c-3.2695 0.042969-5.8945 2.7031-5.8945 5.9727 0 3.2656 2.625 5.9297 5.8945 5.9688h9.0664v9.0703c0 3.2656 2.6484 5.9141 5.9141 5.9141s5.9141-2.6484 5.9141-5.9141v-9.0703h9.0664c3.2656 0 5.9141-2.6445 5.918-5.9102zm-5.9141 2.9141-10.57-0.003906c-0.82812 0-1.5 0.67188-1.5 1.5v10.57c0 1.6094-1.3047 2.9141-2.9141 2.9141s-2.9141-1.3047-2.9141-2.9141v-10.57c0-0.82812-0.67188-1.5-1.5-1.5h-10.566c-1.6133 0.003906-2.918-1.3008-2.918-2.9102-0.011718-1.6328 1.2812-2.9766 2.9141-3.0312h10.57c0.82812 0 1.5-0.67188 1.5-1.5v-10.453c0-1.6094 1.3047-2.9141 2.9141-2.9141s2.9141 1.3047 2.9141 2.9141v10.453c0 0.82812 0.67188 1.5 1.5 1.5h10.566c1.6328 0.054687 2.9258 1.3984 2.9141 3.0312 0 1.6055-1.3047 2.9102-2.9141 2.9102z"/>
<text x="0.0" y="117.5" font-size="5.0" font-weight="bold" font-family="Arbeit Regular, Helvetica, Arial-Unicode, Arial, Sans-serif" fill="#000000">Created by saripah</text><text x="0.0" y="122.5" font-size="5.0" font-weight="bold" font-family="Arbeit Regular, Helvetica, Arial-Unicode, Arial, Sans-serif" fill="#000000">from Noun Project</text></svg>