<svg xmlns="http://www.w3.org/2000/svg" xmlns:xlink="http://www.w3.org/1999/xlink" version="1.1" x="0px" y="0px" viewBox="0 0 100 125" style="enable-background:new 0 0 100 100;" xml:space="preserve"><path d="M26.58,21.24c5.72,0,10.36-4.65,10.36-10.37c0-5.72-4.65-10.36-10.36-10.36c-5.72,0-10.36,4.65-10.36,10.36  C16.22,16.58,20.87,21.24,26.58,21.24z M26.58,3.59c4.01,0,7.27,3.26,7.27,7.27c0,4.01-3.26,7.28-7.27,7.28  c-4.01,0-7.27-3.27-7.27-7.28C19.31,6.85,22.57,3.59,26.58,3.59z M78.78,22.73H68.05c-3.95,0-7.65,1.64-10.31,4.54  c-0.77-0.13-1.57-0.21-2.38-0.21H44.64c-0.81,0-1.61,0.07-2.38,0.21c-2.66-2.89-6.37-4.54-10.31-4.54H21.22  c-7.74,0-14.04,6.3-14.04,14.04v7.37c0,3.68,2.99,6.68,6.68,6.68h4.33c-3.1,7.85-0.41,16.96,6.6,21.83l-1.54,2.67  c-0.66-0.25-1.37-0.29-2.06-0.11c-0.87,0.23-1.59,0.79-2.04,1.56L9.81,92.94c-0.58,1.01-0.74,2.19-0.43,3.32  c0.3,1.13,1.03,2.07,2.04,2.66c0.67,0.39,1.42,0.59,2.17,0.59c0.38,0,0.77-0.05,1.14-0.15c1.13-0.3,2.07-1.03,2.66-2.04l9.34-16.17  c0,0,0,0,0,0c0.45-0.78,0.56-1.68,0.33-2.55c-0.19-0.69-0.58-1.29-1.13-1.73l1.54-2.67c2.5,1.18,5.16,1.74,7.79,1.74  c6.36,0,12.55-3.3,15.96-9.19c2.05-3.56,2.85-7.6,2.31-11.6h9.2c2.86,0,5.3-1.8,6.25-4.33h17.17c3.68,0,6.68-2.99,6.68-6.68v-7.37  C92.82,29.02,86.52,22.73,78.78,22.73z M10.27,44.13v-7.37c0-6.04,4.91-10.95,10.95-10.95h10.72c2.56,0,4.99,0.89,6.93,2.49  c-4.48,2.03-7.71,6.35-8.2,11.45c-0.04,0.01-0.09,0.02-0.13,0.03c-4.5,1.21-8.3,4.01-10.77,7.93h-5.91  C11.88,47.71,10.27,46.11,10.27,44.13z M24.05,79.59l-9.34,16.17c-0.17,0.29-0.45,0.51-0.78,0.6c-0.33,0.09-0.68,0.04-0.97-0.13  c-0.29-0.17-0.51-0.45-0.6-0.78c-0.09-0.33-0.04-0.68,0.13-0.97l9.34-16.18c0.04-0.08,0.11-0.11,0.16-0.12  c0.02-0.01,0.05-0.01,0.07-0.01c0.04,0,0.08,0.01,0.13,0.03l1.76,1.02c0.08,0.05,0.11,0.11,0.13,0.16  C24.09,79.44,24.1,79.52,24.05,79.59z M48.54,65.19c-4.21,7.28-13.54,9.8-20.84,5.63c-0.02-0.01-0.04-0.02-0.05-0.03  c-0.02-0.01-0.04-0.02-0.05-0.03c-7.26-4.24-9.75-13.58-5.54-20.86c2.04-3.54,5.34-6.07,9.28-7.13c0.36-0.1,0.73-0.18,1.09-0.25  c0.01,0,0.03,0,0.04-0.01c0.95-0.18,1.9-0.27,2.85-0.27c2.65,0,5.27,0.69,7.62,2.05c3.54,2.04,6.07,5.34,7.12,9.28  C51.13,57.53,50.58,61.65,48.54,65.19z M62.73,52.04h-9.89c-1.38-4.41-4.32-8.1-8.35-10.42c0,0,0,0,0,0  c-3.27-1.89-6.95-2.71-10.63-2.41c0.9-5.14,5.4-9.07,10.78-9.07h10.72c6.04,0,10.95,4.91,10.95,10.95v7.36  C66.31,50.44,64.7,52.04,62.73,52.04z M89.73,44.13c0,1.98-1.61,3.58-3.58,3.58H69.4V41.1c0-5.69-3.4-10.59-8.27-12.8  c1.94-1.6,4.37-2.48,6.92-2.48h10.73c6.04,0,10.95,4.91,10.95,10.95V44.13z M73.42,21.24c5.72,0,10.37-4.65,10.37-10.37  c0-5.72-4.65-10.36-10.37-10.36c-5.72,0-10.36,4.65-10.36,10.36C63.05,16.58,67.7,21.24,73.42,21.24z M73.42,3.59  c4.01,0,7.28,3.26,7.28,7.27c0,4.01-3.27,7.28-7.28,7.28c-4.01,0-7.27-3.27-7.27-7.28C66.14,6.85,69.4,3.59,73.42,3.59z M50,25.57  c5.72,0,10.36-4.65,10.36-10.36S55.72,4.84,50,4.84S39.64,9.49,39.64,15.2S44.28,25.57,50,25.57z M50,7.93  c4.01,0,7.27,3.26,7.27,7.27s-3.26,7.27-7.27,7.27s-7.27-3.26-7.27-7.27S45.99,7.93,50,7.93z M44.22,51.91c0.6,0.6,0.6,1.58,0,2.19  l-9.09,9.09c-0.3,0.3-0.7,0.45-1.09,0.45c-0.4,0-0.79-0.15-1.09-0.45l-6.57-6.57c-0.6-0.6-0.6-1.58,0-2.19c0.6-0.6,1.58-0.6,2.19,0  l5.48,5.48l7.99-7.99C42.64,51.31,43.62,51.31,44.22,51.91z"/><text x="0" y="115" fill="#000000" font-size="5px" font-weight="bold" font-family="'Helvetica Neue', Helvetica, Arial-Unicode, Arial, Sans-serif">Created by nangicon</text><text x="0" y="120" fill="#000000" font-size="5px" font-weight="bold" font-family="'Helvetica Neue', Helvetica, Arial-Unicode, Arial, Sans-serif">from the Noun Project</text></svg>