<svg xmlns="http://www.w3.org/2000/svg" version="1.1" viewBox="-5.0 -10.0 110.0 135.0">
 <path d="m21.539 20.793c9.9336-10.191 26.035-10.191 35.969 0 9.6328 9.8867 9.9453 25.773 0.8125 36.039l4.8242 5.043 1.5586-1.5977c0.875-0.89844 2.2969-0.89844 3.1719 0l16.41 16.84c2.1641 2.2227 2.1641 5.8477 0 8.0703-2.1641 2.2227-5.6992 2.2227-7.8633 0l-16.41-16.84c-0.875-0.89844-0.875-2.3594 0-3.2539l1.5156-1.5547-4.8203-5.0391c-10 9.418-25.516 9.1172-35.168-0.78906-9.9297-10.195-9.9297-26.723 0-36.918zm7.7969 21.781c-0.39063-1.2891-0.62109-2.5469-0.70313-3.7539-0.41406-5.9023 2.7695-10.922 8.5234-11.344 0.62891-0.046874 1.1055-0.60937 1.0625-1.2539-0.042969-0.64844-0.59375-1.1367-1.2227-1.0898-3.7031 0.26953-6.9023 2.1953-8.8242 5.4336-2.1992 3.7031-2.3359 8.3281-1.0195 12.699 0.18359 0.62109 0.82422 0.96875 1.4297 0.77734 0.60156-0.19141 0.94141-0.84766 0.75391-1.4688zm34.613 21.801-2.2812 2.3398 16.375 16.801c2.0234 2.0781 5.5703 0.64453 5.5703-2.3711 0-0.85938-0.31641-1.7188-0.95312-2.3711l-16.375-16.801zm-38.641-39.715c-7.8516 8.0586-7.8516 21.121 0 29.18 7.8516 8.0586 20.582 8.0586 28.434 0 7.8516-8.0586 7.8516-21.121 0-29.18-7.8516-8.0586-20.582-8.0586-28.434 0zm14.215-3.6875c-9.8398 0-17.812 8.1836-17.812 18.281 0 10.094 7.9766 18.277 17.812 18.277 9.8398 0 17.812-8.1836 17.812-18.277 0.003906-10.098-7.9727-18.281-17.812-18.281zm0-5.4688c-12.781 0-23.141 10.633-23.141 23.746s10.359 23.746 23.141 23.746 23.141-10.633 23.141-23.746c0.003907-13.113-10.359-23.746-23.141-23.746z" fill-rule="evenodd"/>
<text x="0.0" y="117.5" font-size="5.0" font-weight="bold" font-family="Arbeit Regular, Helvetica, Arial-Unicode, Arial, Sans-serif" fill="#000000">Created by sugiyah</text><text x="0.0" y="122.5" font-size="5.0" font-weight="bold" font-family="Arbeit Regular, Helvetica, Arial-Unicode, Arial, Sans-serif" fill="#000000">from Noun Project</text></svg>