<svg xmlns="http://www.w3.org/2000/svg" version="1.1" viewBox="-5.0 -10.0 110.0 135.0">
 <path d="m75.781 34.531c0.19922 0.19922 0.46094 0.30469 0.73828 0.30469 0.070313 0 0.14062-0.007813 0.21484-0.023438 0.34375-0.070312 0.62891-0.3125 0.75781-0.64062l6.6289-16.941c0.15234-0.38672 0.058594-0.82422-0.23438-1.1172s-0.73047-0.38281-1.1172-0.23438l-16.941 6.6289c-0.32812 0.12891-0.57031 0.41406-0.64062 0.75781s0.035156 0.69922 0.28125 0.94922zm5.5273-15.84-5.1797 13.242-8.0586-8.0586zm-31.309 5.2656c-14.359 0-26.043 11.684-26.043 26.043s11.684 26.043 26.043 26.043 26.043-11.684 26.043-26.043-11.684-26.043-26.043-26.043zm0 50c-13.211 0-23.957-10.746-23.957-23.957s10.746-23.957 23.957-23.957 23.957 10.746 23.957 23.957-10.746 23.957-23.957 23.957zm-7.293-53.125h14.582c0.35156 0 0.67969-0.17578 0.87109-0.47266 0.19141-0.29297 0.22266-0.66406 0.082032-0.98828l-7.293-16.668c-0.16016-0.375-0.53516-0.62109-0.94922-0.62109s-0.78906 0.24609-0.95312 0.625l-7.293 16.668c-0.14062 0.32031-0.10938 0.69531 0.082032 0.98828 0.19141 0.29297 0.51953 0.46875 0.87109 0.46875zm7.293-15.109 5.6992 13.027h-11.398zm27.488 60.102c-0.12891-0.32812-0.41406-0.57031-0.75781-0.64062-0.34375-0.074219-0.69922 0.035156-0.94922 0.28125l-10.312 10.312c-0.25 0.25-0.35547 0.60547-0.28125 0.94922 0.070312 0.34375 0.3125 0.62891 0.64062 0.75781l16.941 6.6289c0.125 0.046875 0.25 0.070313 0.37891 0.070313 0.27344 0 0.53906-0.10547 0.73828-0.30469 0.29297-0.29297 0.38281-0.73047 0.23438-1.1172zm-9.4219 10.301 8.0586-8.0586 5.1797 13.242zm-10.773 3.043h-14.586c-0.35156 0-0.67969 0.17578-0.87109 0.47266-0.19141 0.29297-0.22266 0.66406-0.082032 0.98828l7.293 16.668c0.16406 0.375 0.53906 0.62109 0.95312 0.62109s0.78906-0.24609 0.95312-0.625l7.293-16.668c0.14062-0.32031 0.10938-0.69141-0.082032-0.98828-0.19141-0.29297-0.51953-0.46875-0.87109-0.46875zm-7.293 15.109-5.6992-13.027h11.398zm47.293-45.23-16.668-7.293c-0.32031-0.14062-0.69141-0.10938-0.98828 0.082032-0.29297 0.19141-0.46875 0.51953-0.46875 0.87109v14.582c0 0.35156 0.17578 0.67969 0.47266 0.87109 0.17188 0.11719 0.36719 0.17188 0.56641 0.17188 0.14062 0 0.28516-0.027343 0.41797-0.085937l16.668-7.293c0.37891-0.16406 0.625-0.53906 0.625-0.95312s-0.24609-0.78906-0.625-0.95312zm-16.043 6.6523v-11.398l13.027 5.6992zm-57.031 9.7695c-0.25-0.25-0.60547-0.35938-0.94922-0.28125-0.34375 0.070312-0.62891 0.3125-0.75781 0.64062l-6.6289 16.941c-0.15234 0.38672-0.058593 0.82422 0.23438 1.1172 0.19922 0.19922 0.46484 0.30469 0.73828 0.30469 0.12891 0 0.25781-0.023437 0.37891-0.070312l16.941-6.6289c0.32812-0.12891 0.56641-0.41406 0.64062-0.75781 0.070313-0.34375-0.035156-0.70312-0.28516-0.94922zm-5.5273 15.84 5.1797-13.242 8.0586 8.0586zm3.8242-47.133c0.12891 0.32812 0.41406 0.56641 0.75781 0.64062 0.070312 0.015625 0.14062 0.023438 0.21484 0.023438 0.27344 0 0.53906-0.10938 0.73828-0.30469l10.312-10.312c0.25-0.25 0.35547-0.60547 0.28516-0.94922-0.070313-0.34375-0.3125-0.62891-0.64062-0.75781l-16.941-6.6289c-0.38672-0.15234-0.82422-0.058594-1.1172 0.23438-0.29297 0.29297-0.38281 0.73047-0.23438 1.1172zm9.418-10.301-8.0586 8.0586-5.1797-13.242zm-12.141 34.457c0.19922 0 0.39844-0.058593 0.57031-0.16797 0.29297-0.19141 0.46875-0.51953 0.46875-0.87109v-14.586c0-0.35156-0.17578-0.67969-0.47266-0.87109-0.29297-0.19141-0.66406-0.22266-0.98828-0.082032l-16.668 7.293c-0.375 0.16406-0.62109 0.53906-0.62109 0.95312s0.24609 0.78906 0.625 0.95312l16.668 7.293c0.13281 0.058594 0.27344 0.085937 0.41797 0.085937zm-1.043-2.6328-13.027-5.6992 13.027-5.6992z"/>
<text x="0.0" y="117.5" font-size="5.0" font-weight="bold" font-family="Arbeit Regular, Helvetica, Arial-Unicode, Arial, Sans-serif" fill="#000000">Created by Chehuna</text><text x="0.0" y="122.5" font-size="5.0" font-weight="bold" font-family="Arbeit Regular, Helvetica, Arial-Unicode, Arial, Sans-serif" fill="#000000">from Noun Project</text></svg>